<svg xmlns="http://www.w3.org/2000/svg" viewBox="0 0 540 240"><defs><style>.a{fill:#654691;}.b{fill:#3671a2;}.c{fill:#ffd040;}.d{fill:#fff;}.e{fill:#026c68;}.f{stroke:#fff;stroke-miterlimit:10;stroke-width:3px;}</style></defs><circle class="a" cx="51.89" cy="76.5" r="38.08"/><rect class="a" x="83.82" y="7.7" width="46.66" height="108.08"/><path class="b" d="M137.12,7.84V115.78l25.29-.46s24.33-.89,24.33-34.62V34.5S189.14,9.64,137.12,7.84Z"/><path class="c" d="M164.84,122.8c29.14-.88,29.5-29,29.5-29V65h21.82s22.71.74,27.59,39a14.22,14.22,0,0,1,.11,1.73l.1,26.07a30.46,30.46,0,0,1-.18,3.17c-4.76,38.15-31.85,37.8-31.85,37.8H137.19V122.88Z"/><path class="c" d="M137.12,180.45l.1,50c50.09,0,50-22.43,50-22.43V180.45Zm26.49,33.23a9.78,9.78,0,1,1,9.78-9.78A9.78,9.78,0,0,1,163.61,213.68Z"/><circle class="d" cx="163.51" cy="203.81" r="9.88"/><circle class="e" cx="51.89" cy="161.69" r="38.08"/><rect class="e" x="83.82" y="122.42" width="46.66" height="108.08"/><path class="f" d="M255.83,65V25.72h5.52V65ZM261,65V59.7h4.37q6,0,9.1-3.45t3.05-10.36q0-7.48-3.05-11.2T265.33,31h-4.26l-.66-5.25h4.92q18,0,18,20.17,0,19.06-18,19.06Z"/><path class="f" d="M297.73,65,286.08,35.67h6.07l9.56,24.86h.89V65Zm-11.1,13.26L286.35,73l4.59-.55a12.82,12.82,0,0,0,5-1.58,10.39,10.39,0,0,0,3.52-3.6A25.43,25.43,0,0,0,302,61l7.29-25.3h6.08l-8.45,26.68a36.09,36.09,0,0,1-3.72,8.46,14.25,14.25,0,0,1-4.86,4.8,17.41,17.41,0,0,1-6.73,2Z"/><path class="f" d="M322.35,65V35.67h5.3l.56,6.18V65Zm18,0V45.89A5.67,5.67,0,0,0,339,41.8a5.11,5.11,0,0,0-3.87-1.44q-6.9,0-6.9,8.12L326.49,41h2.27a5.84,5.84,0,0,1,2.15-4.41,10.93,10.93,0,0,1,12.77,1.37q2.54,2.82,2.54,8V65Z"/><path class="f" d="M363.12,65.5c-3.05,0-5.42-.73-7.09-2.21a7.85,7.85,0,0,1-2.52-6.24A8.24,8.24,0,0,1,357,49.92q3.47-2.49,9.79-2.49a31.09,31.09,0,0,1,4.68.32,16.48,16.48,0,0,1,3.67,1l-1.22,4a21.18,21.18,0,0,0-3.62-.48c-1.18-.05-2.39-.07-3.62-.07q-7.62,0-7.62,4.37a3.94,3.94,0,0,0,1.31,3.17,5.47,5.47,0,0,0,3.71,1.14,10.09,10.09,0,0,0,4.58-.94,6.81,6.81,0,0,0,2.75-2.41,5.68,5.68,0,0,0,.91-3v-3.2L374,58.76h-2.32l.94-.88a7.24,7.24,0,0,1-1.18,4.24,7,7,0,0,1-3.3,2.54A13.66,13.66,0,0,1,363.12,65.5Zm10.34-.27-.39-8.68-.77-2.43V46.55a4.81,4.81,0,0,0-2.06-4.3,11.7,11.7,0,0,0-6.12-1.47l-7-.2.56-5.19,5.91.08q7.26.12,10.79,3.14t3.52,8.82V59.65l5,.6V65Z"/><path class="f" d="M387.11,65V35.67h5.19l.66,6.18V65Zm11,0V42c0-1.66-.77-2.49-2.32-2.49q-2.82,0-2.82,4l-1.71-4.2h1.88c.22-2.8,1.89-4.2,5-4.2a4.44,4.44,0,0,1,3.6,1.58,7.31,7.31,0,0,1,1.31,4.78V65Zm10.11,0V42.57c0-2-.75-3-2.26-3q-2.88,0-2.88,4l-2-4.2h2.27a4.6,4.6,0,0,1,1.37-3,4.77,4.77,0,0,1,3.55-1.25,5.52,5.52,0,0,1,4.42,1.63q1.38,1.63,1.38,5.28V65Z"/><path class="f" d="M421.58,65V60.14H433.3V65Zm1.66-24.42V35.67H438.6v4.86ZM435.34,31a4.1,4.1,0,0,1-4.09-4.08,4.09,4.09,0,1,1,8.18,0A4.08,4.08,0,0,1,435.34,31ZM432.74,65V37.32h5.86V65Zm5.31,0V60.14h9.56V65Z"/><path class="f" d="M469.15,65.5q-7.2,0-11.14-3.93t-3.94-11.32q0-7.19,3.85-11.16t11-4a15.72,15.72,0,0,1,7.34,1.59,9.32,9.32,0,0,1,4.35,4.49l-4.5,3.4a8.87,8.87,0,0,0-3.18-3.12,8.35,8.35,0,0,0-4.23-1.11,8.07,8.07,0,0,0-6.31,2.5q-2.25,2.51-2.25,7.12c0,3.33.84,5.88,2.51,7.63s4.06,2.64,7.16,2.64c1.47,0,2.93-.06,4.38-.19s2.86-.3,4.24-.52l.66,5.13a36,36,0,0,1-4.94.67C472.46,65.45,470.79,65.5,469.15,65.5Z"/><path class="f" d="M271.63,133.4q-8.79,0-13.18-5.06t-4.39-15.17q0-9.58,4.56-14.85t12.79-5.26a18.67,18.67,0,0,1,7.21,1.29A9.3,9.3,0,0,1,283.17,98l-4.11,4.09a8.85,8.85,0,0,0-3.19-2.9,8.68,8.68,0,0,0-4.13-1,10.51,10.51,0,0,0-8.68,3.85Q260,105.85,260,112.9q0,7.71,3.09,11.56t9.23,3.85a18.9,18.9,0,0,0,4.63-.51q2-.51,3.27-.87l2.16,4.81c-.78.24-2.14.57-4.08,1A30.87,30.87,0,0,1,271.63,133.4Zm-2.54-14.92v-5.25h13.09v5.25Zm8,13.26V113.23h5.25v18.51Z"/><path class="f" d="M286.77,132.84V128h19.56v4.8Zm1.1-24.47v-4.81h9.78l.55,4.81Zm5.42,24.47V103.56H298l1.1,8.4v20.88Zm5.85-12.59-1.71-9.18h2.27q.49-8.05,8.06-8.06,4.53,0,6.58,2.59c1.36,1.74,2,4.53,2,8.4h-5.8a8.55,8.55,0,0,0-.95-4.61,3.46,3.46,0,0,0-3.08-1.41,6,6,0,0,0-5.57,3.19C299.75,113.3,299.14,116.32,299.14,120.25Z"/><path class="f" d="M330,133.4q-4.58,0-7.1-2.21a7.91,7.91,0,0,1-2.51-6.25,8.23,8.23,0,0,1,3.47-7.12q3.46-2.49,9.79-2.49a31.09,31.09,0,0,1,4.68.32,17,17,0,0,1,3.66.95l-1.21,4a20.26,20.26,0,0,0-3.62-.49c-1.18,0-2.39-.06-3.62-.06-5.08,0-7.63,1.45-7.63,4.36a4,4,0,0,0,1.32,3.18,5.52,5.52,0,0,0,3.71,1.13,10,10,0,0,0,4.58-.94,6.77,6.77,0,0,0,2.74-2.4,5.63,5.63,0,0,0,.92-3v-3.21l1.71,7.51h-2.32l.94-.88A7.21,7.21,0,0,1,338.3,130a7,7,0,0,1-3.3,2.54A13.65,13.65,0,0,1,330,133.4Zm10.34-.28-.39-8.68-.77-2.43v-7.57a4.78,4.78,0,0,0-2.06-4.29,11.72,11.72,0,0,0-6.12-1.48l-7-.19.55-5.2,5.92.09q7.26.1,10.78,3.13t3.53,8.83v12.21l5,.61v4.69Z"/><path class="f" d="M355.5,145.55v-42h5.3l.56,6.19v35.8Zm14.2-12.15a10.13,10.13,0,0,1-5.4-1.29,4.91,4.91,0,0,1-2.39-3.8h-2.54l2-8.06v3.2a4.39,4.39,0,0,0,1.63,3.73,8.08,8.08,0,0,0,4.94,1.24,6.73,6.73,0,0,0,5.71-2.51c1.28-1.68,1.92-4.15,1.92-7.43s-.66-5.94-2-7.76a7.36,7.36,0,0,0-10.57-.93c-1.1,1.21-1.65,3-1.65,5.48l-1.72-6.41h2.27a6.23,6.23,0,0,1,2.31-4.4,8.82,8.82,0,0,1,5.42-1.45,10.25,10.25,0,0,1,8.67,4q3,4,3.05,11.43,0,7.2-3.05,11.06A10.37,10.37,0,0,1,369.7,133.4Z"/><path class="f" d="M388.65,132.84V91.4h5.86v41.44Zm18,0V113.78a6.11,6.11,0,0,0-1.38-4.29,5,5,0,0,0-3.87-1.51q-6.9,0-6.9,8.4l-1.71-7.52h2.26a5.84,5.84,0,0,1,2.16-4.4A10.91,10.91,0,0,1,410,105.83c1.69,1.87,2.54,4.53,2.54,8v19.06Z"/><path class="f" d="M421.58,132.84V128H433.3v4.8Zm1.66-24.42v-4.86H438.6v4.86Zm12.1-9.5a4.08,4.08,0,1,1,2.9-1.2A4,4,0,0,1,435.34,98.92Zm-2.6,33.92V105.22h5.86v27.62Zm5.31,0V128h9.56v4.8Z"/><path class="f" d="M469.15,133.4q-7.2,0-11.14-3.94t-3.94-11.31q0-7.19,3.85-11.16t11-4a15.72,15.72,0,0,1,7.34,1.59,9.28,9.28,0,0,1,4.35,4.49l-4.5,3.39a9,9,0,0,0-3.18-3.12,8.45,8.45,0,0,0-4.23-1.1,8,8,0,0,0-6.31,2.5q-2.25,2.49-2.25,7.11,0,5,2.51,7.64c1.68,1.76,4.06,2.64,7.16,2.64,1.47,0,2.93-.07,4.38-.2s2.86-.3,4.24-.52l.66,5.14a36,36,0,0,1-4.94.66C472.46,133.34,470.79,133.4,469.15,133.4Z"/><path class="f" d="M497.78,133.4c-2.21,0-4.11-.07-5.68-.2a31.94,31.94,0,0,1-4.32-.63l.66-5.31c1.93.3,3.64.52,5.12.67s2.89.22,4.22.22a17.45,17.45,0,0,0,6.45-.87,2.91,2.91,0,0,0,2-2.78,2.58,2.58,0,0,0-.7-2,5,5,0,0,0-2.17-1l-6.74-1.72a16.86,16.86,0,0,1-6.37-2.73,6,6,0,0,1-2-4.95q0-4.8,3.69-7T503.8,103q2.13,0,4,.12c1.23.08,2.49.23,3.77.43l-.6,5.08c-1.5-.14-2.81-.25-3.95-.3s-2.26-.08-3.35-.08a21.72,21.72,0,0,0-7.12.84,2.89,2.89,0,0,0-2.22,2.75,2,2,0,0,0,.92,1.84,10.17,10.17,0,0,0,2.79,1l5.41,1.33a16.14,16.14,0,0,1,6.76,3,6.77,6.77,0,0,1,2.14,5.39q0,4.73-3.46,6.87T497.78,133.4Z"/><path class="f" d="M255.83,200.74V161.51h5.52v39.23Zm4.86-12.16v-5.25h6.68a9.69,9.69,0,0,0,6.77-2.18,9,9,0,0,0,0-12.22,9.73,9.73,0,0,0-6.77-2.17H260.8v-5.25h6.57q7.15,0,11.07,3.55c2.6,2.37,3.91,5.69,3.91,10s-1.31,7.64-3.91,10-6.3,3.53-11.07,3.53Z"/><path class="f" d="M297.73,200.74l-11.65-29.29h6.07l9.56,24.87h.89v4.42ZM286.63,214l-.28-5.25,4.59-.55a12.82,12.82,0,0,0,5-1.58,10.39,10.39,0,0,0,3.52-3.6,25.59,25.59,0,0,0,2.57-6.26l7.29-25.31h6.08l-8.45,26.69a35.81,35.81,0,0,1-3.72,8.45,14.2,14.2,0,0,1-4.86,4.81,17.41,17.41,0,0,1-6.73,2Z"/><path class="f" d="M319.37,176.26v-4.81h26.52v4.81Zm7.34,10.66V162.61h5.86v24.31Zm12.6,14.37q-6.66,0-9.63-2.76t-3-8.84v-5h5.86v4.7q0,3.48,1.7,5.06c1.13,1.05,3,1.57,5.59,1.57.93,0,1.9,0,2.93-.15s2.21-.24,3.54-.4l.66,5.14c-1.29.22-2.54.38-3.77.49S340.69,201.29,339.31,201.29Z"/><path class="f" d="M355.5,200.74V159.3h5.86v41.44Zm18,0V181.68a6.14,6.14,0,0,0-1.38-4.3,5,5,0,0,0-3.87-1.51q-6.9,0-6.9,8.4l-1.72-7.51h2.27a5.87,5.87,0,0,1,2.15-4.41,10.93,10.93,0,0,1,12.77,1.37q2.54,2.82,2.54,8v19.06Z"/><path class="f" d="M400.59,201.29c-4.06,0-7.2-1.33-9.45-4s-3.37-6.39-3.37-11.21,1.12-8.59,3.37-11.23,5.39-4,9.45-4,7.22,1.32,9.46,4,3.36,6.38,3.36,11.23-1.12,8.56-3.36,11.21S404.66,201.29,400.59,201.29Zm0-5.25a5.64,5.64,0,0,0,5-2.6q1.76-2.59,1.76-7.34c0-3.19-.59-5.64-1.76-7.37a6.11,6.11,0,0,0-10,0c-1.17,1.73-1.75,4.18-1.75,7.37s.58,5.61,1.75,7.34A5.65,5.65,0,0,0,400.59,196Z"/><path class="f" d="M421.8,200.74V171.45h5.31l.55,6.19v23.1Zm18,0V181.68a5.62,5.62,0,0,0-1.39-4.09,5.1,5.1,0,0,0-3.86-1.44q-6.92,0-6.91,8.12L426,176.76h2.26a5.88,5.88,0,0,1,2.16-4.41,10.91,10.91,0,0,1,12.76,1.37c1.7,1.88,2.54,4.53,2.54,8v19.06Z"/><path d="M255.83,65V25.72h5.52V65ZM261,65V59.7h4.37q6,0,9.1-3.45t3.05-10.36q0-7.48-3.05-11.2T265.33,31h-4.26l-.66-5.25h4.92q18,0,18,20.17,0,19.06-18,19.06Z"/><path d="M297.73,65,286.08,35.67h6.07l9.56,24.86h.89V65Zm-11.1,13.26L286.35,73l4.59-.55a12.66,12.66,0,0,0,5-1.58,10.39,10.39,0,0,0,3.52-3.6A25.43,25.43,0,0,0,302,61l7.29-25.3h6.08l-8.45,26.68a36.09,36.09,0,0,1-3.72,8.46,14.16,14.16,0,0,1-4.86,4.8,17.41,17.41,0,0,1-6.73,2Z"/><path d="M322.35,65V35.67h5.3l.56,6.18V65Zm18,0V45.89A5.67,5.67,0,0,0,339,41.8a5.11,5.11,0,0,0-3.87-1.44q-6.9,0-6.9,8.12L326.49,41h2.27a5.84,5.84,0,0,1,2.15-4.41,10.93,10.93,0,0,1,12.77,1.37q2.54,2.82,2.54,8V65Z"/><path d="M363.12,65.5c-3.05,0-5.42-.73-7.09-2.21a7.85,7.85,0,0,1-2.52-6.24A8.26,8.26,0,0,1,357,49.92q3.47-2.49,9.79-2.48a31.19,31.19,0,0,1,4.68.31,16.48,16.48,0,0,1,3.67,1l-1.22,4a21.18,21.18,0,0,0-3.62-.48c-1.18-.05-2.39-.07-3.62-.07q-7.62,0-7.62,4.37a3.94,3.94,0,0,0,1.31,3.17,5.47,5.47,0,0,0,3.71,1.14,10.09,10.09,0,0,0,4.58-.94,6.81,6.81,0,0,0,2.75-2.41,5.68,5.68,0,0,0,.91-3v-3.2L374,58.76h-2.32l.94-.88a7.24,7.24,0,0,1-1.18,4.24,7,7,0,0,1-3.3,2.54A13.66,13.66,0,0,1,363.12,65.5Zm10.34-.27-.39-8.68-.77-2.43V46.55a4.78,4.78,0,0,0-2.06-4.29,11.6,11.6,0,0,0-6.12-1.48l-7-.2.56-5.19,5.91.08q7.26.12,10.79,3.14t3.52,8.83V59.65l5,.6V65Z"/><path d="M387.11,65V35.67h5.19l.66,6.18V65Zm11,0V42c0-1.66-.77-2.49-2.32-2.49q-2.82,0-2.82,4l-1.71-4.2h1.88c.22-2.8,1.89-4.2,5-4.2a4.44,4.44,0,0,1,3.6,1.58,7.31,7.31,0,0,1,1.31,4.78V65Zm10.11,0V42.57c0-2-.75-3-2.26-3q-2.88,0-2.88,4l-2-4.2h2.27a4.6,4.6,0,0,1,1.37-3,4.77,4.77,0,0,1,3.55-1.25,5.52,5.52,0,0,1,4.42,1.63q1.38,1.63,1.38,5.28V65Z"/><path d="M421.58,65V60.14H433.3V65Zm1.66-24.42V35.67H438.6v4.86Zm12.1-9.5a4.11,4.11,0,0,1-4.09-4.09,4.09,4.09,0,1,1,8.18,0A4.1,4.1,0,0,1,435.34,31ZM432.74,65V37.32h5.86V65Zm5.31,0V60.14h9.56V65Z"/><path d="M469.15,65.5q-7.2,0-11.14-3.93t-3.94-11.32q0-7.19,3.85-11.16t11-4a15.72,15.72,0,0,1,7.34,1.59,9.32,9.32,0,0,1,4.35,4.49l-4.5,3.4a8.87,8.87,0,0,0-3.18-3.12,8.35,8.35,0,0,0-4.23-1.11,8.07,8.07,0,0,0-6.31,2.5q-2.25,2.51-2.25,7.12,0,5,2.51,7.64c1.68,1.75,4.06,2.63,7.16,2.63,1.47,0,2.93-.06,4.38-.19s2.86-.3,4.24-.52l.66,5.13a34.56,34.56,0,0,1-4.94.67C472.46,65.45,470.79,65.5,469.15,65.5Z"/><path d="M271.63,133.4q-8.79,0-13.18-5.06t-4.39-15.17q0-9.58,4.56-14.84t12.79-5.27a18.67,18.67,0,0,1,7.21,1.29A9.3,9.3,0,0,1,283.17,98l-4.11,4.09a8.85,8.85,0,0,0-3.19-2.9,8.68,8.68,0,0,0-4.13-1,10.51,10.51,0,0,0-8.68,3.85Q260,105.85,260,112.9q0,7.71,3.09,11.56t9.23,3.85a18.9,18.9,0,0,0,4.63-.51q2-.51,3.27-.87l2.16,4.81c-.78.24-2.14.58-4.08,1A30.87,30.87,0,0,1,271.63,133.4Zm-2.54-14.92v-5.25h13.09v5.25Zm8,13.26V113.23h5.25v18.51Z"/><path d="M286.77,132.84V128h19.56v4.8Zm1.1-24.47v-4.81h9.78l.55,4.81Zm5.42,24.47V103.56H298l1.1,8.4v20.88Zm5.85-12.59-1.71-9.18h2.27q.49-8.05,8.06-8.06c3,0,5.21.86,6.58,2.6s2,4.53,2,8.39h-5.8a8.55,8.55,0,0,0-.95-4.61,3.46,3.46,0,0,0-3.08-1.41,6,6,0,0,0-5.57,3.19C299.75,113.3,299.14,116.32,299.14,120.25Z"/><path d="M330,133.4q-4.58,0-7.1-2.21a7.91,7.91,0,0,1-2.51-6.25,8.23,8.23,0,0,1,3.47-7.12q3.46-2.49,9.79-2.49a31.09,31.09,0,0,1,4.68.32,17,17,0,0,1,3.66.95l-1.21,4a20.26,20.26,0,0,0-3.62-.49c-1.18,0-2.39-.06-3.62-.06-5.08,0-7.63,1.45-7.63,4.36a4,4,0,0,0,1.32,3.18,5.52,5.52,0,0,0,3.71,1.13,10,10,0,0,0,4.58-.94,6.69,6.69,0,0,0,2.74-2.4,5.63,5.63,0,0,0,.92-3v-3.21l1.71,7.52h-2.32l.94-.89A7.21,7.21,0,0,1,338.3,130a7,7,0,0,1-3.3,2.54A13.44,13.44,0,0,1,330,133.4Zm10.34-.28-.39-8.67-.77-2.44v-7.56a4.79,4.79,0,0,0-2.06-4.3,11.82,11.82,0,0,0-6.12-1.48l-7-.19.55-5.2,5.92.09q7.26.1,10.78,3.13t3.53,8.83v12.21l5,.61v4.69Z"/><path d="M355.5,145.55v-42h5.3l.56,6.19v35.8Zm14.2-12.15a10.13,10.13,0,0,1-5.4-1.29,4.91,4.91,0,0,1-2.39-3.8h-2.54l2-8.06v3.2a4.39,4.39,0,0,0,1.63,3.73,8.08,8.08,0,0,0,4.94,1.24,6.73,6.73,0,0,0,5.71-2.51c1.28-1.68,1.92-4.15,1.92-7.43s-.66-5.94-2-7.76a7.36,7.36,0,0,0-10.57-.93c-1.1,1.21-1.65,3-1.65,5.48l-1.72-6.41h2.27a6.25,6.25,0,0,1,2.31-4.4,8.82,8.82,0,0,1,5.42-1.45,10.23,10.23,0,0,1,8.67,4q3,4,3.05,11.42,0,7.22-3.05,11.06A10.37,10.37,0,0,1,369.7,133.4Z"/><path d="M388.65,132.84V91.4h5.86v41.44Zm18,0V113.78a6.11,6.11,0,0,0-1.38-4.29,5,5,0,0,0-3.87-1.51q-6.9,0-6.9,8.4l-1.71-7.52h2.26a5.86,5.86,0,0,1,2.16-4.4A10.91,10.91,0,0,1,410,105.83c1.69,1.87,2.54,4.53,2.54,8v19.06Z"/><path d="M421.58,132.84V128H433.3v4.8Zm1.66-24.42v-4.86H438.6v4.86Zm12.1-9.5a4.08,4.08,0,1,1,2.9-1.2A4,4,0,0,1,435.34,98.92Zm-2.6,33.92V105.22h5.86v27.62Zm5.31,0V128h9.56v4.8Z"/><path d="M469.15,133.4q-7.2,0-11.14-3.94c-2.63-2.62-3.94-6.4-3.94-11.31s1.29-8.51,3.85-11.16,6.24-4,11-4a15.72,15.72,0,0,1,7.34,1.59,9.28,9.28,0,0,1,4.35,4.49l-4.5,3.39a9,9,0,0,0-3.18-3.12,8.45,8.45,0,0,0-4.23-1.1,8,8,0,0,0-6.31,2.5c-1.5,1.66-2.25,4-2.25,7.11q0,5,2.51,7.64c1.68,1.76,4.06,2.64,7.16,2.64,1.47,0,2.93-.07,4.38-.2s2.86-.3,4.24-.52l.66,5.14a36,36,0,0,1-4.94.66C472.46,133.34,470.79,133.4,469.15,133.4Z"/><path d="M497.78,133.4c-2.21,0-4.11-.07-5.68-.2a31.94,31.94,0,0,1-4.32-.63l.66-5.31c1.93.3,3.64.52,5.12.67s2.89.22,4.22.22a17.45,17.45,0,0,0,6.45-.87,2.91,2.91,0,0,0,2-2.78,2.55,2.55,0,0,0-.7-2,4.88,4.88,0,0,0-2.17-1l-6.74-1.72a16.86,16.86,0,0,1-6.37-2.73,6,6,0,0,1-2-4.95q0-4.8,3.69-7T503.8,103q2.13,0,4,.12c1.23.09,2.49.23,3.77.43l-.6,5.08c-1.5-.14-2.81-.24-3.95-.3s-2.26-.08-3.35-.08a21.72,21.72,0,0,0-7.12.84,2.89,2.89,0,0,0-2.22,2.75,2,2,0,0,0,.92,1.84,10.17,10.17,0,0,0,2.79,1l5.41,1.33a16.14,16.14,0,0,1,6.76,3,6.77,6.77,0,0,1,2.14,5.39q0,4.73-3.46,6.87T497.78,133.4Z"/><path d="M255.83,200.74V161.51h5.52v39.23Zm4.86-12.16v-5.25h6.68a9.69,9.69,0,0,0,6.77-2.18,9,9,0,0,0,0-12.22,9.73,9.73,0,0,0-6.77-2.17H260.8v-5.25h6.57q7.15,0,11.07,3.55c2.6,2.37,3.91,5.69,3.91,10s-1.31,7.64-3.91,10-6.3,3.53-11.07,3.53Z"/><path d="M297.73,200.74l-11.65-29.29h6.07l9.56,24.87h.89v4.42ZM286.63,214l-.28-5.25,4.59-.55a12.82,12.82,0,0,0,5-1.58,10.39,10.39,0,0,0,3.52-3.6,25.59,25.59,0,0,0,2.57-6.26l7.29-25.31h6.08l-8.45,26.69a35.81,35.81,0,0,1-3.72,8.45,14.2,14.2,0,0,1-4.86,4.81,17.41,17.41,0,0,1-6.73,2Z"/><path d="M319.37,176.26v-4.81h26.52v4.81Zm7.34,10.66V162.61h5.86v24.31Zm12.6,14.37q-6.66,0-9.63-2.76t-3-8.84v-5h5.86v4.7q0,3.48,1.7,5.06c1.13,1.05,3,1.57,5.59,1.57.93,0,1.9,0,2.93-.15s2.21-.24,3.54-.4l.66,5.14c-1.29.22-2.54.38-3.77.49S340.69,201.29,339.31,201.29Z"/><path d="M355.5,200.74V159.3h5.86v41.44Zm18,0V181.68a6.14,6.14,0,0,0-1.38-4.3,5,5,0,0,0-3.87-1.51q-6.9,0-6.9,8.4l-1.72-7.51h2.27a5.87,5.87,0,0,1,2.15-4.41,10.93,10.93,0,0,1,12.77,1.37q2.54,2.82,2.54,8v19.06Z"/><path d="M400.59,201.29c-4.06,0-7.2-1.33-9.45-4s-3.37-6.39-3.37-11.21,1.12-8.59,3.37-11.23,5.39-4,9.45-4,7.22,1.32,9.46,4,3.36,6.38,3.36,11.23-1.12,8.56-3.36,11.21S404.66,201.29,400.59,201.29Zm0-5.25a5.64,5.64,0,0,0,5-2.6q1.76-2.59,1.76-7.34c0-3.19-.59-5.64-1.76-7.37a6.11,6.11,0,0,0-10,0c-1.17,1.73-1.75,4.18-1.75,7.37s.58,5.61,1.75,7.34A5.65,5.65,0,0,0,400.59,196Z"/><path d="M421.8,200.74V171.45h5.31l.55,6.19v23.1Zm18,0V181.68a5.62,5.62,0,0,0-1.39-4.09,5.1,5.1,0,0,0-3.86-1.44q-6.92,0-6.91,8.12L426,176.76h2.26a5.88,5.88,0,0,1,2.16-4.41,10.91,10.91,0,0,1,12.76,1.37c1.7,1.88,2.54,4.53,2.54,8v19.06Z"/></svg>