<?xml version="1.0" encoding="utf-8"?>
<!-- Generator: Adobe Illustrator 23.0.6, SVG Export Plug-In . SVG Version: 6.00 Build 0)  -->
<svg version="1.1" id="Layer_1" xmlns="http://www.w3.org/2000/svg" xmlns:xlink="http://www.w3.org/1999/xlink" x="0px" y="0px"
	 viewBox="0 0 660 660" style="enable-background:new 0 0 660 660;" xml:space="preserve">
<style type="text/css">
	.st0{fill:#654691;stroke:#FFFFFF;stroke-width:31;stroke-miterlimit:10;}
	.st1{fill:#3671A2;stroke:#FFFFFF;stroke-width:31;stroke-miterlimit:10;}
	.st2{fill:#FFD040;stroke:#FFFFFF;stroke-width:31;stroke-miterlimit:10;}
	.st3{fill:#FFFFFF;stroke:#FFFFFF;stroke-width:31;stroke-miterlimit:10;}
	.st4{fill:#026C68;stroke:#FFFFFF;stroke-width:31;stroke-miterlimit:10;}
	.st5{fill:#654691;}
	.st6{fill:#3671A2;}
	.st7{fill:#FFD040;}
	.st8{fill:#FFFFFF;}
	.st9{fill:#026C68;}
</style>
<g>
	<g id="d_1_">
		<circle class="st0" cx="120.5" cy="218.1" r="103.6"/>
		<rect x="207.3" y="31" class="st0" width="126.9" height="294"/>
	</g>
	<path id="blue_1_" class="st1" d="M352.4,31.4v293.6l68.8-1.3c0,0,66.2-2.4,66.2-94.2c0-78.8,0-125.7,0-125.7
		S493.8,36.2,352.4,31.4z"/>
	<g id="yellow_1_">
		<path class="st2" d="M352.4,500.9h136.4v75.1c0,0,0.2,61-136.1,61"/>
		<path class="st2" d="M427.7,344.1c79.2-2.4,80.2-78.8,80.2-78.8v-78.5c0,0,0,0,59.4,0c0,0,61.8,2,75.1,106.2
			c0.2,1.5,0.3,3.2,0.3,4.7l0.3,70.9c0,2.9-0.2,5.8-0.5,8.7c-13,103.8-86.6,102.8-86.6,102.8H352.5V344.3L427.7,344.1z"/>
		<circle class="st3" cx="424.3" cy="564.7" r="26.6"/>
	</g>
	<g id="g_1_">
		<circle class="st4" cx="120.5" cy="449.8" r="103.6"/>
		<rect x="207.3" y="343" class="st4" width="126.9" height="294"/>
	</g>
	<title>dgpy</title>
</g>
<g>
	<g id="d_2_">
		<circle class="st5" cx="120.5" cy="218.1" r="103.6"/>
		<rect x="207.3" y="31" class="st5" width="126.9" height="294"/>
	</g>
	<path id="blue_2_" class="st6" d="M352.4,31.4v293.6l68.8-1.3c0,0,66.2-2.4,66.2-94.2c0-78.8,0-125.7,0-125.7
		S493.8,36.2,352.4,31.4z"/>
	<g id="yellow_2_">
		<path class="st7" d="M352.4,500.9h136.4v75.1c0,0,0.2,61-136.1,61"/>
		<path class="st7" d="M427.7,344.1c79.2-2.4,80.2-78.8,80.2-78.8v-78.5c0,0,0,0,59.4,0c0,0,61.8,2,75.1,106.2
			c0.2,1.5,0.3,3.2,0.3,4.7l0.3,70.9c0,2.9-0.2,5.8-0.5,8.7c-13,103.8-86.6,102.8-86.6,102.8H352.5V344.3L427.7,344.1z"/>
		<circle class="st8" cx="424.3" cy="564.7" r="26.6"/>
	</g>
	<g id="g_2_">
		<circle class="st9" cx="120.5" cy="449.8" r="103.6"/>
		<rect x="207.3" y="343" class="st9" width="126.9" height="294"/>
	</g>
	<title>dgpy</title>
</g>
</svg>
