<svg xmlns="http://www.w3.org/2000/svg" width="660" height="660" viewBox="0 0 662.1 662"><style type="text/css">
	.st0{fill:#654691;stroke:#FFFFFF;stroke-width:31;stroke-miterlimit:10;}
	.st1{fill:#3671A2;stroke:#FFFFFF;stroke-width:31;stroke-miterlimit:10;}
	.st2{fill:#FFD040;stroke:#FFFFFF;stroke-width:31;stroke-miterlimit:10;}
	.st3{fill:#FFFFFF;stroke:#FFFFFF;stroke-width:31;stroke-miterlimit:10;}
	.st4{fill:#026C68;stroke:#FFFFFF;stroke-width:32;stroke-miterlimit:10;}
	.st5{fill:#654691;}
	.st6{fill:#3671A2;}
	.st7{fill:#FFD040;}
	.st8{fill:#FFFFFF;}
	.st9{fill:#026C68;}
</style><circle class="st0" cx="120.9" cy="218.7" r="103.9"/><rect x="208" y="31" class="st0" width="127.3" height="294.9"/><path class="st1" d="M353.5 31.4v294.5l69-1.3c0 0 66.4-2.4 66.4-94.5 0-79.1 0-126.1 0-126.1S495.4 36.3 353.5 31.4z"/><path class="st2" d="M353.5 502.4h136.8v75.3c0 0 0.2 61.2-136.5 61.2"/><path class="st2" d="M429.1 345.1c79.5-2.4 80.5-79.1 80.5-79.1v-78.7c0 0 0 0 59.6 0 0 0 62 2 75.3 106.5 0.2 1.5 0.3 3.2 0.3 4.7l0.3 71.1c0 2.9-0.2 5.8-0.5 8.7 -13 104.1-86.9 103.1-86.9 103.1H353.6V345.3L429.1 345.1z"/><circle class="st3" cx="425.7" cy="566.4" r="26.7"/><circle class="st4" cx="120.9" cy="451.2" r="103.9"/><rect x="208" y="344" class="st4" width="127.3" height="294.9"/><title>  dgpy</title><circle class="st5" cx="120.9" cy="218.7" r="103.9"/><rect x="208" y="31" class="st5" width="127.3" height="294.9"/><path class="st6" d="M353.5 31.4v294.5l69-1.3c0 0 66.4-2.4 66.4-94.5 0-79.1 0-126.1 0-126.1S495.4 36.3 353.5 31.4z"/><path class="st7" d="M353.5 502.4h136.8v75.3c0 0 0.2 61.2-136.5 61.2"/><path class="st7" d="M429.1 345.1c79.5-2.4 80.5-79.1 80.5-79.1v-78.7c0 0 0 0 59.6 0 0 0 62 2 75.3 106.5 0.2 1.5 0.3 3.2 0.3 4.7l0.3 71.1c0 2.9-0.2 5.8-0.5 8.7 -13 104.1-86.9 103.1-86.9 103.1H353.6V345.3L429.1 345.1z"/><circle class="st8" cx="425.7" cy="566.4" r="26.7"/><circle class="st9" cx="120.9" cy="451.2" r="103.9"/><rect x="208" y="344" class="st9" width="127.3" height="294.9"/><title>  dgpy</title></svg>
