<svg xmlns="http://www.w3.org/2000/svg" viewBox="0 0 540 240"><defs><style>.a{fill:#654691;}.b{fill:#3671a2;}.c{fill:#ffd040;}.d{fill:#fff;}.e{fill:#026c68;}</style></defs><circle class="a" cx="42.65" cy="76.5" r="38.08"/><rect class="a" x="74.58" y="7.7" width="46.66" height="108.08"/><path class="b" d="M127.88,7.84V115.78l25.28-.46s24.34-.89,24.34-34.62V34.5S179.9,9.64,127.88,7.84Z"/><path class="c" d="M127.88,180.45H178V208s.07,22.43-50,22.43"/><path class="c" d="M155.6,122.8c29.14-.88,29.49-29,29.49-29V65h21.83s22.71.74,27.59,39a14.22,14.22,0,0,1,.1,1.73l.11,26.07a30.46,30.46,0,0,1-.18,3.17c-4.77,38.15-31.86,37.8-31.86,37.8H128V122.88Z"/><circle class="d" cx="154.37" cy="203.9" r="9.78"/><circle class="e" cx="42.65" cy="161.69" r="38.08"/><rect class="e" x="74.58" y="122.42" width="46.66" height="108.08"/><path d="M246.58,65V25.72h5.53V65Zm5.14,0V59.7h4.37q6,0,9.1-3.45t3.05-10.36q0-7.48-3.05-11.2T256.09,31h-4.26l-.66-5.25h4.92q18,0,18,20.17Q274,65,256.09,65Z"/><path d="M288.49,65,276.83,35.67h6.08l9.56,24.86h.89V65Zm-11.1,13.26L277.11,73l4.59-.55a12.82,12.82,0,0,0,5-1.58,10.39,10.39,0,0,0,3.52-3.6A25.82,25.82,0,0,0,292.75,61L300,35.67h6.08l-8.46,26.68A35.7,35.7,0,0,1,294,70.81a14.25,14.25,0,0,1-4.86,4.8,17.46,17.46,0,0,1-6.73,2Z"/><path d="M313.11,65V35.67h5.3l.55,6.18V65Zm18,0V45.89a5.67,5.67,0,0,0-1.38-4.09,5.11,5.11,0,0,0-3.87-1.44q-6.9,0-6.91,8.12L317.25,41h2.27a5.84,5.84,0,0,1,2.15-4.41,10.93,10.93,0,0,1,12.77,1.37q2.54,2.82,2.54,8V65Z"/><path d="M353.88,65.5c-3.05,0-5.42-.73-7.1-2.21a7.88,7.88,0,0,1-2.51-6.24,8.24,8.24,0,0,1,3.47-7.13q3.47-2.49,9.79-2.49a31.09,31.09,0,0,1,4.68.32,16.25,16.25,0,0,1,3.66,1l-1.21,4A21.18,21.18,0,0,0,361,52.2c-1.18-.05-2.39-.07-3.62-.07q-7.62,0-7.62,4.37a3.94,3.94,0,0,0,1.31,3.17,5.47,5.47,0,0,0,3.71,1.14,10.09,10.09,0,0,0,4.58-.94,6.71,6.71,0,0,0,2.74-2.41,5.6,5.6,0,0,0,.92-3v-3.2l1.71,7.51h-2.32l.94-.88a7.24,7.24,0,0,1-1.18,4.24,7,7,0,0,1-3.3,2.54A13.66,13.66,0,0,1,353.88,65.5Zm10.34-.27-.39-8.68-.77-2.43V46.55a4.81,4.81,0,0,0-2.06-4.3,11.7,11.7,0,0,0-6.12-1.47l-7-.2.55-5.19,5.92.08q7.26.12,10.78,3.14t3.53,8.82V59.65l5,.6V65Z"/><path d="M377.86,65V35.67h5.2l.66,6.18V65Zm11,0V42c0-1.66-.77-2.49-2.32-2.49q-2.82,0-2.82,4L382,39.31h1.88q.33-4.2,5-4.2a4.46,4.46,0,0,1,3.61,1.58,7.37,7.37,0,0,1,1.31,4.78V65ZM399,65V42.57c0-2-.76-3-2.27-3q-2.86,0-2.87,4l-2-4.2h2.27a4.6,4.6,0,0,1,1.37-3A4.75,4.75,0,0,1,399,35.11a5.52,5.52,0,0,1,4.42,1.63q1.38,1.63,1.38,5.28V65Z"/><path d="M412.34,65V60.14h11.71V65ZM414,40.53V35.67h15.36v4.86ZM426.1,31A4.1,4.1,0,0,1,422,26.94a4.09,4.09,0,1,1,8.18,0A4.08,4.08,0,0,1,426.1,31ZM423.5,65V37.32h5.86V65Zm5.31,0V60.14h9.56V65Z"/><path d="M459.91,65.5q-7.2,0-11.14-3.93t-3.94-11.32q0-7.19,3.85-11.16t11-4A15.72,15.72,0,0,1,467,36.7a9.32,9.32,0,0,1,4.35,4.49l-4.5,3.4a8.87,8.87,0,0,0-3.18-3.12,8.35,8.35,0,0,0-4.23-1.11,8.07,8.07,0,0,0-6.31,2.5q-2.25,2.51-2.25,7.12c0,3.33.84,5.88,2.51,7.63s4.06,2.64,7.16,2.64c1.47,0,2.93-.06,4.38-.19s2.86-.3,4.24-.52l.66,5.13a36,36,0,0,1-4.95.67C463.22,65.45,461.55,65.5,459.91,65.5Z"/><path d="M262.39,133.4q-8.79,0-13.18-5.06t-4.39-15.17q0-9.58,4.55-14.85t12.8-5.26a18.67,18.67,0,0,1,7.21,1.29A9.3,9.3,0,0,1,273.93,98l-4.11,4.09a8.85,8.85,0,0,0-3.19-2.9,8.68,8.68,0,0,0-4.13-1,10.5,10.5,0,0,0-8.68,3.85q-3.09,3.85-3.09,10.9,0,7.71,3.09,11.56t9.23,3.85a18.9,18.9,0,0,0,4.63-.51q2-.51,3.27-.87l2.16,4.81c-.78.24-2.14.57-4.08,1A30.87,30.87,0,0,1,262.39,133.4Zm-2.55-14.92v-5.25h13.1v5.25Zm8,13.26V113.23h5.25v18.51Z"/><path d="M277.53,132.84V128h19.55v4.8Zm1.1-24.47v-4.81h9.78l.55,4.81Zm5.42,24.47V103.56h4.75l1.1,8.4v20.88Zm5.85-12.59-1.71-9.18h2.26c.34-5.37,3-8.06,8.07-8.06q4.53,0,6.58,2.59c1.36,1.74,2,4.53,2,8.4h-5.8a8.55,8.55,0,0,0-.95-4.61,3.46,3.46,0,0,0-3.08-1.41,6,6,0,0,0-5.57,3.19C290.51,113.3,289.9,116.32,289.9,120.25Z"/><path d="M320.73,133.4q-4.58,0-7.1-2.21a7.91,7.91,0,0,1-2.51-6.25,8.2,8.2,0,0,1,3.47-7.12q3.46-2.49,9.79-2.49a31.09,31.09,0,0,1,4.68.32,17.12,17.12,0,0,1,3.66.95l-1.21,4a20.26,20.26,0,0,0-3.62-.49c-1.18,0-2.39-.06-3.62-.06-5.08,0-7.63,1.45-7.63,4.36a4,4,0,0,0,1.32,3.18,5.52,5.52,0,0,0,3.71,1.13,9.89,9.89,0,0,0,4.57-.94,6.73,6.73,0,0,0,2.75-2.4,5.62,5.62,0,0,0,.91-3v-3.21l1.72,7.51H329.3l.94-.88a7.29,7.29,0,0,1-1.18,4.24,7,7,0,0,1-3.3,2.54A13.65,13.65,0,0,1,320.73,133.4Zm10.33-.28-.38-8.68L329.9,122v-7.57a4.78,4.78,0,0,0-2-4.29,11.75,11.75,0,0,0-6.12-1.48l-7-.19.55-5.2,5.91.09q7.27.1,10.79,3.13t3.53,8.83v12.21l5,.61v4.69Z"/><path d="M346.26,145.55v-42h5.3l.56,6.19v35.8Zm14.2-12.15a10.13,10.13,0,0,1-5.4-1.29,4.91,4.91,0,0,1-2.39-3.8h-2.54l2-8.06v3.2a4.39,4.39,0,0,0,1.63,3.73,8.08,8.08,0,0,0,4.94,1.24,6.73,6.73,0,0,0,5.71-2.51c1.28-1.68,1.92-4.15,1.92-7.43s-.66-5.94-2-7.76a7.36,7.36,0,0,0-10.57-.93c-1.1,1.21-1.65,3-1.65,5.48l-1.72-6.41h2.27a6.23,6.23,0,0,1,2.31-4.4A8.82,8.82,0,0,1,360.4,103a10.25,10.25,0,0,1,8.67,4q3,4,3.05,11.43,0,7.2-3.05,11.06A10.37,10.37,0,0,1,360.46,133.4Z"/><path d="M379.41,132.84V91.4h5.86v41.44Zm18,0V113.78a6.11,6.11,0,0,0-1.38-4.29,5,5,0,0,0-3.87-1.51q-6.9,0-6.9,8.4l-1.71-7.52h2.26a5.83,5.83,0,0,1,2.15-4.4,10.93,10.93,0,0,1,12.77,1.37c1.69,1.87,2.54,4.53,2.54,8v19.06Z"/><path d="M412.34,132.84V128h11.71v4.8ZM414,108.42v-4.86h15.36v4.86Zm12.1-9.5a4.08,4.08,0,1,1,2.9-1.2A4,4,0,0,1,426.1,98.92Zm-2.6,33.92V105.22h5.86v27.62Zm5.31,0V128h9.56v4.8Z"/><path d="M459.91,133.4q-7.2,0-11.14-3.94t-3.94-11.31q0-7.19,3.85-11.16t11-4A15.72,15.72,0,0,1,467,104.6a9.28,9.28,0,0,1,4.35,4.49l-4.5,3.39a9,9,0,0,0-3.18-3.12,8.45,8.45,0,0,0-4.23-1.1,8,8,0,0,0-6.31,2.5q-2.25,2.49-2.25,7.11,0,5,2.51,7.64c1.68,1.76,4.06,2.64,7.16,2.64,1.47,0,2.93-.07,4.38-.2s2.86-.3,4.24-.52l.66,5.14a36,36,0,0,1-4.95.66C463.22,133.34,461.55,133.4,459.91,133.4Z"/><path d="M488.54,133.4c-2.21,0-4.11-.07-5.68-.2a32.34,32.34,0,0,1-4.33-.63l.67-5.31c1.93.3,3.64.52,5.12.67s2.89.22,4.22.22a17.45,17.45,0,0,0,6.45-.87,2.91,2.91,0,0,0,2-2.78,2.59,2.59,0,0,0-.71-2,4.94,4.94,0,0,0-2.16-1l-6.75-1.72a16.88,16.88,0,0,1-6.36-2.73,6,6,0,0,1-2-4.95q0-4.8,3.68-7t11.9-2.15q2.13,0,4,.12c1.23.08,2.48.23,3.77.43l-.6,5.08c-1.5-.14-2.81-.25-4-.3s-2.25-.08-3.34-.08a21.84,21.84,0,0,0-7.13.84,2.89,2.89,0,0,0-2.21,2.75,2,2,0,0,0,.92,1.84,10.17,10.17,0,0,0,2.79,1l5.41,1.33a16.14,16.14,0,0,1,6.76,3,6.77,6.77,0,0,1,2.14,5.39c0,3.15-1.16,5.44-3.46,6.87S493.62,133.4,488.54,133.4Z"/><path d="M246.58,200.74V161.51h5.53v39.23Zm4.87-12.16v-5.25h6.68a9.69,9.69,0,0,0,6.77-2.18,9,9,0,0,0,0-12.22,9.73,9.73,0,0,0-6.77-2.17h-6.57v-5.25h6.57q7.15,0,11.07,3.55c2.6,2.37,3.91,5.69,3.91,10s-1.31,7.64-3.91,10-6.3,3.53-11.07,3.53Z"/><path d="M288.49,200.74l-11.66-29.29h6.08l9.56,24.87h.89v4.42ZM277.39,214l-.28-5.25,4.59-.55a12.82,12.82,0,0,0,5-1.58,10.39,10.39,0,0,0,3.52-3.6,26,26,0,0,0,2.57-6.26L300,171.45h6.08l-8.46,26.69a35.42,35.42,0,0,1-3.71,8.45,14.2,14.2,0,0,1-4.86,4.81,17.46,17.46,0,0,1-6.73,2Z"/><path d="M310.12,176.26v-4.81h26.53v4.81Zm7.35,10.66V162.61h5.86v24.31Zm12.6,14.37q-6.66,0-9.63-2.76t-3-8.84v-5h5.86v4.7q0,3.48,1.7,5.06c1.13,1.05,3,1.57,5.59,1.57.92,0,1.9,0,2.93-.15s2.21-.24,3.54-.4l.66,5.14c-1.29.22-2.55.38-3.77.49S331.45,201.29,330.07,201.29Z"/><path d="M346.26,200.74V159.3h5.86v41.44Zm18,0V181.68a6.14,6.14,0,0,0-1.38-4.3,5,5,0,0,0-3.87-1.51q-6.9,0-6.9,8.4l-1.72-7.51h2.27a5.84,5.84,0,0,1,2.15-4.41,10.93,10.93,0,0,1,12.77,1.37q2.54,2.82,2.54,8v19.06Z"/><path d="M391.35,201.29q-6.09,0-9.45-4t-3.37-11.21q0-7.28,3.37-11.23t9.45-4q6.11,0,9.46,4t3.35,11.23q0,7.23-3.35,11.21T391.35,201.29Zm0-5.25a5.64,5.64,0,0,0,5-2.6q1.76-2.59,1.76-7.34c0-3.19-.59-5.64-1.76-7.37a6.11,6.11,0,0,0-10,0c-1.17,1.73-1.76,4.18-1.76,7.37s.59,5.61,1.76,7.34A5.65,5.65,0,0,0,391.35,196Z"/><path d="M412.56,200.74V171.45h5.31l.55,6.19v23.1Zm18,0V181.68a5.65,5.65,0,0,0-1.38-4.09,5.1,5.1,0,0,0-3.86-1.44q-6.91,0-6.91,8.12l-1.71-7.51H419a5.88,5.88,0,0,1,2.16-4.41,10.91,10.91,0,0,1,12.76,1.37q2.53,2.82,2.54,8v19.06Z"/></svg>